<svg version="1" xmlns="http://www.w3.org/2000/svg" width="933.333" height="933.333" viewBox="0 0 700.000000 700.000000"><path d="M592.2 133.8c-11.1 3.6-17.5 12-17.9 23.7-.1 3.8-.3 7.3-.3 7.6 0 .4-1 .9-2.2 1.2-2.3.4-13.6 3.5-29.3 7.7-4.4 1.2-8.7 2.3-9.5 2.6-.8.2-8.2 2.1-16.5 4.4-8.2 2.2-19 5.1-24 6.4-21 5.6-58.7 15.8-67 18-4.9 1.4-18.7 5-30.5 8.2-11.8 3.2-21.8 6-22.2 6.3-.4.3.6 5.7 2.3 11.9 1.6 6.2 3 11.8 3.2 12.3.2 1.1-3.9 2.3-60.8 17.4-17.6 4.7-34.2 9.2-37 10-2.7.8-12.9 3.5-22.5 6.1-9.6 2.5-18.2 4.8-19 5-25.6 6.8-45.1 12.2-45.5 12.6-.4.3 1 6.6 3 13.9 2 7.4 3.8 14.5 4.1 15.8.3 1.4.7 2.8 1 3.3.3.4.2.8-.3.9-1.5.1-3.9.7-18.3 4.7-13.6 3.7-19.2 5.2-21.5 5.7-.5.2-13.8 3.7-29.5 8C77.7 362.1 66.8 365 66 365c-.4 0-2.5-1.7-4.7-3.8-12.7-11.8-33.1-8.1-41.2 7.6-3.4 6.5-3.4 13.8-.1 25.2.6 1.9 2.8 10.2 5 18.5 2.2 8.2 5.4 20 7 26.1 1.7 6.1 3.2 11.9 3.4 13 1.1 5.6 6.5 23.3 7.9 25.9 1.9 3.8 7.2 8.8 11.6 11 4.4 2.2 12.6 3 17.6 1.6 9-2.4 17.9-11.4 19.2-19.4.5-3.3 1-3.8 4.7-4.8 2.2-.6 7-1.9 10.6-2.8 3.6-1 11-3.1 16.5-4.5 5.5-1.5 11.6-3.1 13.5-3.6 4.3-1.2 29.9-8.1 56-15 10.7-2.9 23.2-6.2 27.8-7.5l8.2-2.3 1.4 5.2c.8 2.8 2.8 10.2 4.5 16.5 1.6 6.2 3.1 11.4 3.3 11.6.3.2 9.8-2.3 24.8-6.5 1.9-.5 7.8-2.1 13-3.5s16.3-4.3 24.5-6.6c8.3-2.2 16-4.2 17.2-4.5 1.2-.2 3.4-.9 4.8-1.4 1.4-.5 2.5-.7 2.5-.5 0 .2 1.2 0 2.8-.6 1.5-.6 6.8-2.1 11.7-3.4 12.3-3.2 28-7.4 34-9.1 2.8-.8 6.1-1.7 7.5-2 2.4-.5 18.8-5 34.9-9.5 4-1.1 7.6-1.7 7.9-1.4.6.6 3.3 10.2 5.4 19 .6 2.7 1.3 5.1 1.4 5.3.2.4 13-2.9 68.4-17.8 22.8-6.1 42.2-11.3 43-11.5.8-.2 17.7-4.7 37.5-10 41.6-11.2 50.4-13.5 52.6-14 1-.2 2.2 1 3.3 3.5 9.2 20.8 39.2 20 48.1-1.4 2.1-4.9 1.9-13.8-.5-22.1-1.1-3.9-4.7-17.1-8-29.5-3.3-12.4-6.7-24.8-7.5-27.5-1.2-4.4-6-22.4-7-26.5-.2-.8-4.7-17.5-10-37s-9.7-36.2-9.9-37c-.2-.8-1.1-4-2-7.1-.9-3.1-1.8-6.5-2.1-7.5-.2-1.1-1.1-4.6-2-7.9-10.8-40.3-11.1-41.2-17-46.3-7.1-6.3-16.4-8.3-25.3-5.4z"/></svg>